<svg width="60" height="60" viewBox="0 0 60 60" fill="none" xmlns="http://www.w3.org/2000/svg">
<g id="CurrencyDollarSimple">
<path id="Vector" opacity="0.2" d="M30 30H35.625C38.1114 30 40.496 30.9877 42.2541 32.7459C44.0123 34.504 45 36.8886 45 39.375C45 41.8614 44.0123 44.246 42.2541 46.0041C40.496 47.7623 38.1114 48.75 35.625 48.75H30V30Z" fill="#FF6B00"/>
<path id="Vector_2" opacity="0.2" d="M30 11.25H26.25C23.7636 11.25 21.379 12.2377 19.6209 13.9959C17.8627 15.754 16.875 18.1386 16.875 20.625C16.875 23.1114 17.8627 25.496 19.6209 27.2541C21.379 29.0123 23.7636 30 26.25 30H30V11.25Z" fill="#FF6B00"/>
<path id="Vector_3" d="M30 5.625V11.25" stroke="#FF6B00" stroke-width="3" stroke-linecap="round" stroke-linejoin="round"/>
<path id="Vector_4" d="M30 48.75V54.375" stroke="#FF6B00" stroke-width="3" stroke-linecap="round" stroke-linejoin="round"/>
<path id="Vector_5" d="M43.125 20.625C43.125 19.3939 42.8825 18.1748 42.4114 17.0373C41.9402 15.8999 41.2497 14.8664 40.3791 13.9959C39.5086 13.1253 38.4751 12.4348 37.3377 11.9636C36.2002 11.4925 34.9811 11.25 33.75 11.25H26.25C23.7636 11.25 21.379 12.2377 19.6209 13.9959C17.8627 15.754 16.875 18.1386 16.875 20.625C16.875 23.1114 17.8627 25.496 19.6209 27.2541C21.379 29.0123 23.7636 30 26.25 30H35.625C38.1114 30 40.496 30.9877 42.2541 32.7459C44.0123 34.504 45 36.8886 45 39.375C45 41.8614 44.0123 44.246 42.2541 46.0041C40.496 47.7623 38.1114 48.75 35.625 48.75H24.375C21.8886 48.75 19.504 47.7623 17.7459 46.0041C15.9877 44.246 15 41.8614 15 39.375" stroke="#FF6B00" stroke-width="3" stroke-linecap="round" stroke-linejoin="round"/>
</g>
</svg>
