<svg width="18" height="19" viewBox="0 0 18 19" fill="none" xmlns="http://www.w3.org/2000/svg">
<g id="elements">
<path id="Vector" d="M1.08337 9.50016C1.08337 5.76821 1.08337 3.90223 2.24274 2.74287C3.40211 1.5835 5.26809 1.5835 9.00004 1.5835C12.732 1.5835 14.598 1.5835 15.7573 2.74287C16.9167 3.90223 16.9167 5.76821 16.9167 9.50016C16.9167 13.2321 16.9167 15.0981 15.7573 16.2575C14.598 17.4168 12.732 17.4168 9.00004 17.4168C5.26809 17.4168 3.40211 17.4168 2.24274 16.2575C1.08337 15.0981 1.08337 13.2321 1.08337 9.50016Z" stroke="white" stroke-width="1.5" stroke-linejoin="round"/>
<path id="Vector_2" d="M13.1667 6.91675C13.5809 6.91675 13.9167 6.58096 13.9167 6.16675C13.9167 5.75253 13.5809 5.41675 13.1667 5.41675V6.91675ZM12.3334 6.16675V6.91675V6.16675ZM8.25004 17.4167C8.25004 17.831 8.58583 18.1667 9.00004 18.1667C9.41425 18.1667 9.75004 17.831 9.75004 17.4167H8.25004ZM7.33337 10.4167C6.91916 10.4167 6.58337 10.7525 6.58337 11.1667C6.58337 11.581 6.91916 11.9167 7.33337 11.9167V10.4167ZM11.5 11.9167C11.9143 11.9167 12.25 11.581 12.25 11.1667C12.25 10.7525 11.9143 10.4167 11.5 10.4167V11.9167ZM13.1667 5.41675H12.3334V6.91675H13.1667V5.41675ZM8.25004 9.50008V17.4167H9.75004V9.50008H8.25004ZM12.3334 5.41675C11.5689 5.41675 10.9201 5.41516 10.4047 5.48446C9.86763 5.55666 9.36452 5.71792 8.95787 6.12457L10.0185 7.18523C10.1 7.10373 10.2338 7.02092 10.6045 6.97108C10.9968 6.91834 11.5265 6.91675 12.3334 6.91675V5.41675ZM9.75004 9.50008C9.75004 8.6932 9.75163 8.1635 9.80437 7.77123C9.85421 7.40054 9.93703 7.26673 10.0185 7.18523L8.95787 6.12457C8.55121 6.53123 8.38995 7.03434 8.31775 7.57136C8.24845 8.08681 8.25004 8.73561 8.25004 9.50008H9.75004ZM7.33337 11.9167H11.5V10.4167H7.33337V11.9167Z" fill="white"/>
</g>
</svg>
