<svg width="61" height="60" viewBox="0 0 61 60" fill="none" xmlns="http://www.w3.org/2000/svg">
<g id="GlobeHemisphereWest">
<path id="Vector" opacity="0.2" d="M38.1664 32.8735C37.9432 32.7374 37.6942 32.6488 37.4352 32.6133L32.0867 31.8915C31.685 31.8371 31.2765 31.9143 30.9224 32.1117C30.5683 32.309 30.2877 32.6158 30.1227 32.986L26.9117 40.1907C26.7625 40.5259 26.7149 40.8976 26.7749 41.2597C26.8349 41.6217 26.9998 41.9582 27.2492 42.2274L31.8758 46.9922C32.0763 47.2079 32.2233 47.4677 32.3047 47.7507C32.3862 48.0337 32.3998 48.3319 32.3445 48.6212L31.6016 52.4743C35.5208 52.2836 39.3221 51.0712 42.628 48.9576C45.934 46.8439 48.6297 43.9024 50.4477 40.4251L38.1664 32.8735Z" fill="#FF6B00"/>
<path id="Vector_2" d="M30.5 52.5C42.9264 52.5 53 42.4264 53 30C53 17.5736 42.9264 7.5 30.5 7.5C18.0736 7.5 8 17.5736 8 30C8 42.4264 18.0736 52.5 30.5 52.5Z" stroke="#FF6B00" stroke-width="3" stroke-linecap="round" stroke-linejoin="round"/>
<path id="Vector_3" d="M18.2844 28.8891L21.4062 23.4375C21.571 23.1521 21.8082 22.9151 22.0937 22.7505C22.3793 22.5859 22.7032 22.4995 23.0328 22.5H26.9492C27.2658 22.5005 27.5773 22.4198 27.8539 22.2657L30.7344 20.6813C30.8611 20.6131 30.9785 20.5288 31.0836 20.4305L37.393 14.7282C37.7069 14.4426 37.9147 14.0591 37.9824 13.6402C38.05 13.2212 37.9736 12.7918 37.7656 12.4219L35.3047 8.01331" stroke="#FF6B00" stroke-width="3" stroke-linecap="round" stroke-linejoin="round"/>
<path id="Vector_4" d="M16.3859 12.4758L13.625 19.0032C13.4385 19.4451 13.4284 19.9416 13.5969 20.3907L16.2922 27.579C16.4029 27.8727 16.5856 28.1339 16.8235 28.3386C17.0615 28.5433 17.347 28.6851 17.6539 28.7508L22.6766 29.8313C22.9551 29.891 23.2164 30.0135 23.4406 30.1893C23.6648 30.3652 23.8459 30.5898 23.9703 30.8461L24.8609 32.6907C25.0146 33.0076 25.2543 33.2748 25.5528 33.4617C25.8512 33.6487 26.1963 33.7478 26.5484 33.7477H29.7828" stroke="#FF6B00" stroke-width="3" stroke-linecap="round" stroke-linejoin="round"/>
<path id="Vector_5" opacity="0.2" d="M18.2844 28.8891L21.4062 23.4375C21.571 23.1521 21.8082 22.9151 22.0937 22.7505C22.3793 22.5859 22.7032 22.4995 23.0328 22.5H26.9492C27.2659 22.5005 27.5773 22.4198 27.8539 22.2657L30.7344 20.6813C30.8611 20.6131 30.9785 20.5288 31.0836 20.4305L37.393 14.7282C37.7069 14.4426 37.9147 14.0591 37.9824 13.6402C38.05 13.2212 37.9736 12.7918 37.7656 12.4219L35.3047 8.01331C33.726 7.67134 32.1153 7.49927 30.5 7.50003C25.3641 7.49219 20.3814 9.2488 16.3859 12.4758L13.625 19.0032C13.4385 19.445 13.4284 19.9416 13.5969 20.3907L16.2922 27.5789C16.4029 27.8726 16.5856 28.1338 16.8235 28.3386C17.0615 28.5433 17.347 28.6851 17.6539 28.7508L18.2844 28.8891Z" fill="#FF6B00"/>
<path id="Vector_6" d="M50.443 40.4251L38.1664 32.8735C37.9432 32.7374 37.6942 32.6488 37.4352 32.6133L32.0867 31.8915C31.685 31.8371 31.2765 31.9143 30.9224 32.1117C30.5683 32.309 30.2877 32.6158 30.1227 32.986L26.9117 40.1907C26.7625 40.5259 26.7149 40.8976 26.7749 41.2597C26.8349 41.6217 26.9998 41.9582 27.2492 42.2274L31.8758 46.9922C32.0763 47.2079 32.2233 47.4677 32.3047 47.7507C32.3862 48.0337 32.3998 48.3319 32.3445 48.6212L31.6016 52.4743" stroke="#FF6B00" stroke-width="3" stroke-linecap="round" stroke-linejoin="round"/>
</g>
</svg>
