<svg width="234" height="205" viewBox="0 0 234 205" fill="none" xmlns="http://www.w3.org/2000/svg">
<g id="Group">
<path id="Vector" d="M54.4181 51.1045C54.4181 51.1045 53.3396 53.5473 47.8665 64.4993C47.8665 64.54 47.7865 64.6215 47.7465 64.7029C46.9875 66.2093 46.1485 67.8786 45.1897 69.7514C42.0736 75.9399 37.9188 84.0827 32.4058 94.8311C48.5454 154.11 89.0945 166.528 119.696 166.772C140.989 166.935 157.448 161.154 157.448 161.154L169.513 139.413L179.58 121.295L91.3315 71.8278L56.3756 52.2445L54.3781 51.1045H54.4181Z" fill="#253D63"/>
<g id="Vector_2" style="mix-blend-mode:multiply" opacity="0.4">
<path d="M56.4155 52.2466C53.3794 55.5444 50.5431 59.6158 47.8665 64.5421C47.8665 64.5829 47.7865 64.6643 47.7465 64.7457C46.8676 66.3336 46.0286 68.0028 45.1897 69.7942C75.112 152.891 169.513 139.456 169.513 139.456L179.58 121.338L56.3756 52.2873L56.4155 52.2466Z" fill="#121D38"/>
</g>
<g id="Vector_3" style="mix-blend-mode:multiply" opacity="0.2">
<path d="M54.4181 51.1045C54.4181 51.1045 53.3396 53.5473 47.8665 64.4993C47.8665 64.54 47.7865 64.6215 47.7465 64.7029C46.9875 66.2093 46.1485 67.8786 45.1897 69.7514C42.0736 75.9399 37.9188 84.0827 32.4058 94.8311C48.5454 154.11 89.0945 166.528 119.696 166.772C80.1458 152.523 101.519 112.582 101.519 112.582C101.519 112.582 96.8446 92.7954 91.3315 71.8685L56.3756 52.2852L54.3781 51.1452L54.4181 51.1045Z" fill="black"/>
</g>
<path id="Vector_4" d="M0.366272 0.783691L101.559 112.543L196.679 123.169L252.728 129.439L151.016 14.1378L0.366272 0.783691Z" fill="#253D63"/>
<g id="Vector_5" style="mix-blend-mode:multiply" opacity="0.2">
<path d="M0.366272 0.783691L101.559 112.543L196.679 123.169C58.1336 70.5264 151.016 14.1378 151.016 14.1378L0.366272 0.783691Z" fill="black"/>
</g>
<path id="Vector_6" d="M128.245 59.5737L191.725 123.942L199.356 141.449" stroke="#2C3E60" stroke-width="0.94" stroke-miterlimit="10"/>
<path id="Vector_7" d="M204.469 149.592L231.515 194.296C233.073 196.902 231.875 200.322 229.038 201.339L221.807 203.904C219.251 204.8 216.494 203.334 215.775 200.729L199.875 144.91L203.75 148.697C204.03 148.982 204.309 149.307 204.509 149.633L204.469 149.592Z" fill="#2C3E60"/>
<g id="Group_2" style="mix-blend-mode:multiply" opacity="0.3">
<path id="Vector_8" d="M225.163 202.684C221.607 193.768 217.932 184.933 214.177 176.139C212.419 171.946 210.621 167.793 208.824 163.64C206.347 157.899 203.83 152.199 201.353 146.499L200.434 146.988L199.515 147.477C199.515 147.477 199.515 147.517 199.555 147.558L201.593 151.141L207.825 161.93C208.145 162.5 208.464 163.07 208.824 163.64C211.301 167.874 213.698 172.149 216.214 176.343L224.724 190.715C226.681 193.931 228.639 197.188 230.596 200.404L230.876 200.119C229.158 196.822 227.36 193.524 225.603 190.226L217.613 175.569C214.976 170.683 212.179 165.838 209.463 160.953L201.313 146.418L200.394 146.907L199.475 147.395C199.475 147.395 199.475 147.436 199.475 147.517C199.475 147.517 199.475 147.558 199.515 147.599C200.474 149.716 201.433 151.833 202.352 153.95C205.748 161.604 209.143 169.258 212.659 176.831C216.654 185.503 220.649 194.216 224.844 202.807L225.083 202.725L225.163 202.684Z" fill="#323332"/>
</g>
<path id="Vector_9" d="M198.956 138.846C195.68 139.334 193.443 142.428 193.923 145.767C194.402 149.106 197.438 151.386 200.714 150.897C203.99 150.408 206.227 147.314 205.748 143.976C205.268 140.637 202.232 138.357 198.956 138.846Z" fill="#121D38"/>
<g id="Vector_10" style="mix-blend-mode:multiply" opacity="0.5">
<path d="M198.956 138.846C195.68 139.334 193.443 142.428 193.923 145.767C194.402 149.106 197.438 151.386 200.714 150.897C203.99 150.408 206.227 147.314 205.748 143.976C205.268 140.637 202.232 138.357 198.956 138.846Z" fill="#121D38"/>
</g>
<path id="Vector_11" d="M128.525 54.4455C124.65 54.2012 121.374 56.3183 121.214 59.1276C121.054 61.9368 124.051 64.4203 127.926 64.6646C131.801 64.9089 135.077 62.7918 135.236 59.9825C135.396 57.1733 132.4 54.6897 128.525 54.4455Z" fill="#081121"/>
</g>
</svg>
