<svg width="20" height="20" viewBox="0 0 20 20" fill="none" xmlns="http://www.w3.org/2000/svg">
<g id="elements">
<path id="Vector" d="M3.14801 9.95205C2.35799 8.5745 1.97653 7.44965 1.74652 6.30943C1.40634 4.62306 2.18483 2.97575 3.47447 1.92464C4.01953 1.4804 4.64435 1.63218 4.96666 2.21041L5.69431 3.51584C6.27107 4.55055 6.55944 5.06791 6.50224 5.61641C6.44504 6.16491 6.05613 6.61163 5.2783 7.50509L3.14801 9.95205ZM3.14801 9.95205C4.74708 12.7403 7.25652 15.2511 10.048 16.8521M10.048 16.8521C11.4256 17.6421 12.5504 18.0235 13.6906 18.2536C15.377 18.5937 17.0243 17.8152 18.0754 16.5256C18.5197 15.9805 18.3679 15.3557 17.7897 15.0334L16.4842 14.3058C15.4495 13.729 14.9322 13.4406 14.3837 13.4978C13.8352 13.555 13.3884 13.9439 12.495 14.7218L10.048 16.8521Z" stroke="#5A9BD4" stroke-width="1.5" stroke-linejoin="round"/>
<path id="Vector_2" d="M11.6667 5.69329C12.8527 6.19695 13.8032 7.14739 14.3068 8.33341M12.2117 1.66675C15.1593 2.51738 17.4826 4.84052 18.3333 7.7881" stroke="#5A9BD4" stroke-width="1.5" stroke-linecap="round"/>
</g>
</svg>
