<svg width="20" height="16" viewBox="0 0 20 16" fill="none" xmlns="http://www.w3.org/2000/svg">
<g id="elements">
<path id="Vector 7163" d="M1.66669 3L7.42754 6.26414C9.55135 7.46751 10.4487 7.46751 12.5725 6.26414L18.3334 3" stroke="#5A9BD4" stroke-width="1.5" stroke-linejoin="round"/>
<path id="Vector" d="M1.67983 9.22977C1.7343 11.7844 1.76154 13.0617 2.70415 14.0079C3.64676 14.9541 4.95863 14.987 7.58238 15.0529C9.19945 15.0936 10.8006 15.0936 12.4177 15.0529C15.0414 14.987 16.3533 14.9541 17.2959 14.0079C18.2385 13.0617 18.2657 11.7844 18.3202 9.22977C18.3377 8.40836 18.3377 7.59181 18.3202 6.77041C18.2657 4.2158 18.2385 2.93849 17.2959 1.9923C16.3533 1.04611 15.0414 1.01315 12.4177 0.947222C10.8006 0.906592 9.19944 0.90659 7.58237 0.947217C4.95863 1.01313 3.64676 1.04609 2.70415 1.99229C1.76154 2.93848 1.7343 4.21579 1.67982 6.7704C1.66231 7.5918 1.66231 8.40836 1.67983 9.22977Z" stroke="#5A9BD4" stroke-width="1.5" stroke-linejoin="round"/>
</g>
</svg>
