<svg width="18" height="19" viewBox="0 0 18 19" fill="none" xmlns="http://www.w3.org/2000/svg">
<g id="elements">
<path id="Vector" d="M1.08337 9.50016C1.08337 5.76821 1.08337 3.90223 2.24274 2.74287C3.40211 1.5835 5.26809 1.5835 9.00004 1.5835C12.732 1.5835 14.598 1.5835 15.7573 2.74287C16.9167 3.90223 16.9167 5.76821 16.9167 9.50016C16.9167 13.2321 16.9167 15.0981 15.7573 16.2575C14.598 17.4168 12.732 17.4168 9.00004 17.4168C5.26809 17.4168 3.40211 17.4168 2.24274 16.2575C1.08337 15.0981 1.08337 13.2321 1.08337 9.50016Z" stroke="white" stroke-width="1.5" stroke-linejoin="round"/>
<path id="Ellipse 1794" d="M12.75 9.5C12.75 11.5711 11.0711 13.25 9 13.25C6.92893 13.25 5.25 11.5711 5.25 9.5C5.25 7.42893 6.92893 5.75 9 5.75C11.0711 5.75 12.75 7.42893 12.75 9.5Z" stroke="white" stroke-width="1.5"/>
<path id="Vector_2" d="M13.5898 4.91675L13.5824 4.91675" stroke="white" stroke-width="2" stroke-linecap="round" stroke-linejoin="round"/>
</g>
</svg>
