<svg width="18" height="19" viewBox="0 0 18 19" fill="none" xmlns="http://www.w3.org/2000/svg">
<g id="elements">
<path id="Vector 6356" d="M4.83337 7.8335V13.6668" stroke="white" stroke-width="1.5" stroke-linecap="round" stroke-linejoin="round"/>
<path id="Vector" d="M8.16675 10.3335V13.6668M8.16675 10.3335C8.16675 8.95278 9.28604 7.8335 10.6667 7.8335C12.0475 7.8335 13.1667 8.95278 13.1667 10.3335V13.6668M8.16675 10.3335V7.8335" stroke="white" stroke-width="1.5" stroke-linecap="round" stroke-linejoin="round"/>
<path id="Vector_2" d="M4.84 5.3335L4.83252 5.3335" stroke="white" stroke-width="2" stroke-linecap="round" stroke-linejoin="round"/>
<path id="Vector_3" d="M1.08337 9.50016C1.08337 5.76821 1.08337 3.90223 2.24274 2.74287C3.40211 1.5835 5.26809 1.5835 9.00004 1.5835C12.732 1.5835 14.598 1.5835 15.7573 2.74287C16.9167 3.90223 16.9167 5.76821 16.9167 9.50016C16.9167 13.2321 16.9167 15.0981 15.7573 16.2575C14.598 17.4168 12.732 17.4168 9.00004 17.4168C5.26809 17.4168 3.40211 17.4168 2.24274 16.2575C1.08337 15.0981 1.08337 13.2321 1.08337 9.50016Z" stroke="white" stroke-width="1.5" stroke-linejoin="round"/>
</g>
</svg>
