<svg width="60" height="60" viewBox="0 0 60 60" fill="none" xmlns="http://www.w3.org/2000/svg">
<g id="Scroll">
<path id="Vector" opacity="0.2" d="M9.375 9.375C10.8668 9.375 12.2976 9.96763 13.3525 11.0225C14.4074 12.0774 15 13.5082 15 15V45C15 46.4918 15.5926 47.9226 16.6475 48.9775C17.7024 50.0324 19.1332 50.625 20.625 50.625C22.1168 50.625 23.5476 50.0324 24.6025 48.9775C25.6574 47.9226 26.25 46.4918 26.25 45C26.25 42.6562 24.375 41.25 24.375 41.25H46.875V15C46.875 13.5082 46.2824 12.0774 45.2275 11.0225C44.1726 9.96763 42.7418 9.375 41.25 9.375H9.375Z" fill="#FF6B00"/>
<path id="Vector_2" d="M46.875 41.25V15C46.875 13.5082 46.2824 12.0774 45.2275 11.0225C44.1726 9.96763 42.7418 9.375 41.25 9.375H9.375" stroke="#FF6B00" stroke-width="3" stroke-linecap="round" stroke-linejoin="round"/>
<path id="Vector_3" d="M24.375 24.375H39.375" stroke="#FF6B00" stroke-width="3" stroke-linecap="round" stroke-linejoin="round"/>
<path id="Vector_4" d="M24.375 31.875H39.375" stroke="#FF6B00" stroke-width="3" stroke-linecap="round" stroke-linejoin="round"/>
<path id="Vector_5" d="M5.625 18.75C5.625 18.75 3.75 17.3438 3.75 15C3.75 13.5082 4.34263 12.0774 5.39752 11.0225C6.45242 9.96763 7.88316 9.375 9.375 9.375C10.8668 9.375 12.2976 9.96763 13.3525 11.0225C14.4074 12.0774 15 13.5082 15 15V45C15 46.4918 15.5926 47.9226 16.6475 48.9775C17.7024 50.0324 19.1332 50.625 20.625 50.625M20.625 50.625C22.1168 50.625 23.5476 50.0324 24.6025 48.9775C25.6574 47.9226 26.25 46.4918 26.25 45C26.25 42.6562 24.375 41.25 24.375 41.25H50.625C50.625 41.25 52.5 42.6562 52.5 45C52.5 46.4918 51.9074 47.9226 50.8525 48.9775C49.7976 50.0324 48.3668 50.625 46.875 50.625H20.625Z" stroke="#FF6B00" stroke-width="3" stroke-linecap="round" stroke-linejoin="round"/>
</g>
</svg>
