<svg width="32" height="33" viewBox="0 0 32 33" fill="none" xmlns="http://www.w3.org/2000/svg">
<g id="SealPercent">
<path id="Vector" d="M6.8075 25.6925C5.6575 24.5425 6.42 22.1263 5.835 20.7113C5.2275 19.25 3 18.0625 3 16.5C3 14.9375 5.2275 13.75 5.835 12.2887C6.42 10.875 5.6575 8.4575 6.8075 7.3075C7.9575 6.1575 10.375 6.92 11.7887 6.335C13.2562 5.7275 14.4375 3.5 16 3.5C17.5625 3.5 18.75 5.7275 20.2113 6.335C21.6263 6.92 24.0425 6.1575 25.1925 7.3075C26.3425 8.4575 25.58 10.8737 26.165 12.2887C26.7725 13.7562 29 14.9375 29 16.5C29 18.0625 26.7725 19.25 26.165 20.7113C25.58 22.1263 26.3425 24.5425 25.1925 25.6925C24.0425 26.8425 21.6263 26.08 20.2113 26.665C18.75 27.2725 17.5625 29.5 16 29.5C14.4375 29.5 13.25 27.2725 11.7887 26.665C10.375 26.08 7.9575 26.8425 6.8075 25.6925Z" stroke="#5A9BD4" stroke-width="2" stroke-linecap="round" stroke-linejoin="round"/>
<path id="Vector_2" d="M12 14.5C13.1046 14.5 14 13.6046 14 12.5C14 11.3954 13.1046 10.5 12 10.5C10.8954 10.5 10 11.3954 10 12.5C10 13.6046 10.8954 14.5 12 14.5Z" stroke="#5A9BD4" stroke-width="2" stroke-linecap="round" stroke-linejoin="round"/>
<path id="Vector_3" d="M20 22.5C21.1046 22.5 22 21.6046 22 20.5C22 19.3954 21.1046 18.5 20 18.5C18.8954 18.5 18 19.3954 18 20.5C18 21.6046 18.8954 22.5 20 22.5Z" stroke="#5A9BD4" stroke-width="2" stroke-linecap="round" stroke-linejoin="round"/>
<path id="Vector_4" d="M11 21.5L21 11.5" stroke="#5A9BD4" stroke-width="2" stroke-linecap="round" stroke-linejoin="round"/>
</g>
</svg>
