<svg width="36" height="36" viewBox="0 0 36 36" fill="none" xmlns="http://www.w3.org/2000/svg">
<g id="elements">
<path id="Vector 6081" d="M1.33325 34.667L33.8333 34.667" stroke="#EFA286" stroke-width="1.5" stroke-linecap="round" stroke-linejoin="round"/>
<path id="Vector 6040" d="M3 19.667L3 34.667M33 19.667V34.667" stroke="#EFA286" stroke-width="2" stroke-linecap="round" stroke-linejoin="round"/>
<path id="Vector 6082" d="M10.5 11.334L10.5 34.6673M25.5 11.334L25.5 34.6673" stroke="#EFA286" stroke-width="2" stroke-linecap="round" stroke-linejoin="round"/>
<path id="Vector 6041" d="M1.33325 19.667H9.66659M34.6666 19.667H26.3333" stroke="#EFA286" stroke-width="2" stroke-linecap="round" stroke-linejoin="round"/>
<path id="Vector 6083" d="M8.83325 11.334L27.1666 11.334" stroke="#EFA286" stroke-width="2" stroke-linecap="round" stroke-linejoin="round"/>
<path id="Vector 5326" d="M18 11.334L18 6.30433M18 6.30433V2.95123C18 2.1609 18 1.76573 18.2441 1.52021C19.0101 0.749641 22.1667 2.57237 23.3671 3.31154C24.3808 3.93574 24.6667 5.18255 24.6667 6.30433L18 6.30433Z" stroke="#EFA286" stroke-width="2" stroke-linecap="round" stroke-linejoin="round"/>
<path id="Vector 6084" d="M18 34.6673L18 31.334" stroke="#EFA286" stroke-width="2" stroke-linecap="round" stroke-linejoin="round"/>
<path id="Vector" d="M15.5 18L15.5 18.8333M20.5 18V18.8333" stroke="#EFA286" stroke-width="2" stroke-linecap="round" stroke-linejoin="round"/>
<path id="Vector_2" d="M15.5 24.667L15.5 25.5003M20.5 24.667V25.5003" stroke="#EFA286" stroke-width="2" stroke-linecap="round" stroke-linejoin="round"/>
</g>
</svg>
